<?xml version="1.0" encoding="UTF-8" standalone="no" ?>
<!DOCTYPE svg PUBLIC "-//W3C//DTD SVG 1.1//EN" "http://www.w3.org/Graphics/SVG/1.1/DTD/svg11.dtd">
<svg xmlns="http://www.w3.org/2000/svg" xmlns:xlink="http://www.w3.org/1999/xlink" version="1.1" width="1280" height="1024" viewBox="0 0 1280 1024" xml:space="preserve">
<desc>Created with Fabric.js 5.3.0</desc>
<defs>
</defs>
<g transform="matrix(1 0 0 1 640 512)" id="background-logo"  >
<rect style="stroke: none; stroke-width: 0; stroke-dasharray: none; stroke-linecap: butt; stroke-dashoffset: 0; stroke-linejoin: miter; stroke-miterlimit: 4; fill: rgb(255,255,255); fill-opacity: 0; fill-rule: nonzero; opacity: 1;"  paint-order="stroke"  x="-640" y="-512" rx="0" ry="0" width="1280" height="1024" />
</g>
<g transform="matrix(4.735915387989355 0 0 4.735915387989355 640.4762585812358 522.3564593301436)" id="logo-logo"  >
<g style=""  paint-order="stroke"   >
		<g transform="matrix(1.5120082571660163 0 0 1.5120082571660163 -4.2706301898647325 0)"  >
<path style="stroke: none; stroke-width: 1; stroke-dasharray: none; stroke-linecap: butt; stroke-dashoffset: 0; stroke-linejoin: miter; stroke-miterlimit: 4; fill: rgb(82,101,255); fill-rule: nonzero; opacity: 1;"  paint-order="stroke"  transform=" translate(-69.17552500579666, -71.99999487097345)" d="M 22.2360783 94.1094971 L 22.236076399999998 94.1094971 C 21.224954699999998 93.4775467 21.011348799999997 92.0948639 21.784626099999997 91.1872406 L 31.557275899999997 79.71679689999999 C 49.0882036 95.6343766 70.1170064 106.62846379999999 92.53870599999999 111.9502564 C 92.95769709999999 112.0497056 93.12533009999999 111.4336396 92.7143194 111.3051377 C 71.0217687 104.5231019 51.01394859999999 92.4337693 34.73295039999999 75.9893113 C 33.81856749999999 75.0658189 32.916315299999994 74.1282426 32.02581229999999 73.1774064 C 31.23907489999999 72.3373719 30.46044359999999 71.4882279 29.69293799999999 70.6270753 L 29.69256029999999 70.6266938 C 28.84929479999999 69.7834321 28.95028889999999 68.38833629999999 29.90621579999999 67.6753159 L 44.33093469999999 56.9160309 C 45.121004299999996 58.104621900000005 45.925089099999994 59.281272900000005 46.7482778 60.4412079 C 46.934812699999995 60.704040500000005 47.118833699999996 60.9691963 47.307127099999995 61.230583200000005 C 60.179803899999996 79.1050797 76.9556676 93.48132330000001 96.11620529999999 103.34307860000001 C 96.3349782 103.4556732 96.5141774 103.13774110000001 96.30362139999998 103.01044460000001 C 77.8083267 91.8292389 61.951931 76.3514709 50.2236748 57.8072243 C 50.1728935 57.7269669 50.1216736 57.6470833 50.0710793 57.566639 C 49.3665467 56.4478074 48.6757775 55.318924 48.001663300000004 54.178096800000006 C 47.1754571 52.77984240000001 46.36848080000001 51.36826330000001 45.58897030000001 49.937954000000005 C 45.066826000000006 48.97988900000001 44.55197160000001 48.016861000000006 44.05119340000001 47.0447197 L 44.05094160000001 47.044155100000005 C 43.553123600000006 45.9240646 44.07944120000001 44.6141166 45.21383680000001 44.149826000000004 L 90.86142740000001 25.466913200000004 C 91.95741280000001 25.018342900000004 93.12030800000001 25.582965800000004 93.44564070000001 26.721630100000006 L 93.44564070000001 26.721632000000007 C 100.12053690000002 45.0455704 113.02284250000001 60.65463830000001 129.7244722 71.0112057 C 129.6407777 66.11495020000001 128.9591219 61.150369700000006 127.6234285 56.208730700000004 C 118.8913118 23.902620300000002 85.3668672 4.751783400000001 53.1027452 13.637792600000004 C 20.7736322 22.541701300000007 1.7981377999999992 56.0633106 10.911476300000004 88.4243832 C 19.787538700000006 119.9428997 52.5412904 138.7972699 84.2523805 130.6359234 C 92.3526994 128.5511913 99.6347734 124.926878 105.8792192 120.1653195 C 76.3275757 120.6484985 46.8370171 111.6160889 22.2360783 94.1094971 z" stroke-linecap="round" />
</g>
		<g transform="matrix(1.5120082571660163 0 0 1.5120082571660163 34.512081112698695 -0.14210635313472153)"  >
<path style="stroke: none; stroke-width: 1; stroke-dasharray: none; stroke-linecap: butt; stroke-dashoffset: 0; stroke-linejoin: miter; stroke-miterlimit: 4; fill: rgb(82,101,255); fill-rule: nonzero; opacity: 1;"  paint-order="stroke"  transform=" translate(-94.8253262676327, -71.90600970094465)" d="M 134.7783051 86.283989 C 134.2800599 86.049614 133.8200837 85.74754340000001 133.4091492 85.3905793 C 132.1555786 84.30178839999999 131.3623047 82.69757849999999 131.3623047 80.9064561 C 131.3623047 80.2672502 131.46571350000002 79.6530534 131.6542053 79.0769349 C 131.8149109 78.58573919999999 131.5986328 78.0513383 131.1461944 77.8015214 C 130.60356130000002 77.5018922 130.0734252 77.1837846 129.53755180000002 76.8740312 C 128.06320180000003 76.0216142 126.60611720000001 75.14399730000001 125.18517300000002 74.2171098 C 121.05338280000002 71.5218507 117.16091920000002 68.5103303 113.52713770000003 65.2332841 C 105.15669240000003 57.68458570000001 98.19091790000003 48.69563690000001 93.06650540000003 38.690002500000006 C 92.82456970000003 38.217617100000005 92.28519440000002 38.004047500000006 91.77504730000003 38.150436500000005 C 91.16960910000003 38.324161600000004 90.53048710000003 38.4180642 89.86905670000003 38.4180642 C 89.78332520000004 38.4180642 89.69905090000003 38.412407 89.61407470000003 38.409389600000004 C 87.13361360000003 38.319217800000004 84.98730470000004 36.929290900000005 83.83522030000003 34.8974534 C 83.57161710000003 34.432563900000005 82.99189750000004 34.250827900000004 82.49729150000003 34.4532624 L 72.41745 38.5788307 L 64.6570969 41.7550697 L 57.4391938 44.7092056 C 56.9276124 44.9185829 56.6395913 45.485061599999995 56.810874999999996 46.0106239 C 56.95473869999999 46.4520607 57.050861399999995 46.9141845 57.10295489999999 47.389572099999995 C 57.129852299999996 47.634681699999994 57.148582499999996 47.882305099999996 57.148582499999996 48.1348304 C 57.148582499999996 49.9584426 56.438392699999994 51.610481199999995 55.286754599999995 52.8471526 C 55.08639529999999 53.0622825 54.876983599999996 53.268741500000004 54.65104289999999 53.457160800000004 C 54.519752499999996 53.566703600000004 54.42585749999999 53.704406600000006 54.36288069999999 53.8537978 C 54.22939299999999 54.1708678 54.249000499999994 54.5458869 54.44238659999999 54.8528365 C 69.5594177 78.8508681 91.84451289999998 97.5378264 117.8196335 108.05050650000001 C 118.941864 108.50469960000001 120.0683746 108.94934070000001 121.2040634 109.37271110000002 C 121.7052078 109.55953210000001 122.2738724 109.35049430000002 122.52725219999999 108.87947840000002 C 123.52957919999999 107.01627340000003 125.4934311 105.74804680000003 127.7575607 105.74804680000003 C 128.1364135 105.74804680000003 128.5061493 105.78531640000003 128.8644561 105.85482780000002 C 129.25128170000002 105.92980190000003 129.6298217 105.78192130000002 129.8740539 105.50048820000002 C 129.972351 105.38716880000003 130.0511016 105.25437160000003 130.096405 105.10227960000002 L 130.255661 104.56819150000001 L 133.0411224 95.22657010000002 L 135.3275451 87.55822750000002 C 135.4771729 87.0563736 135.252182 86.506897 134.7783051 86.283989 z M 95.7466507 84.8123703 C 87.60041050000001 84.8123703 80.9965973 79.430275 80.9965973 72.79107669999999 C 80.9965973 71.58909609999999 81.2157517 70.42929079999999 81.6186066 69.33421329999999 C 82.4977341 66.94452669999998 84.26447300000001 64.8692627 86.60696410000001 63.35939029999999 C 88.86127470000001 61.90633399999999 91.64729310000001 60.979568499999985 94.68966670000002 60.80384449999999 C 95.03923030000001 60.783603699999986 95.39086910000002 60.76971439999999 95.74665060000002 60.76971439999999 C 102.34116350000002 60.76971439999999 107.92350000000002 64.29721839999999 109.81153100000003 69.16282659999999 C 110.25574490000002 70.30780039999999 110.49683370000002 71.52631379999998 110.49683370000002 72.79107669999999 C 110.49683370000002 73.260933 110.46025080000003 73.72362519999999 110.39589680000003 74.17946629999999 C 110.30137620000004 74.84899139999999 110.13871750000003 75.50122839999999 109.91491690000004 76.13260659999999 C 108.1378708 81.1453476 102.4695587 84.8123703 95.7466507 84.8123703 z" stroke-linecap="round" />
</g>
</g>
</g>
<g transform="matrix(1.9211538461538462 0 0 1.9211538461538462 817.7744097780081 531.396402006609)" id="text-logo"  >
<g style=""  paint-order="stroke"   >
		<g transform="matrix(1 0 0 1 0 0)" id="text-logo-path-0"  >
<path style="stroke: none; stroke-width: 0; stroke-dasharray: none; stroke-linecap: butt; stroke-dashoffset: 0; stroke-linejoin: miter; stroke-miterlimit: 4; fill: rgb(84,100,252); fill-rule: nonzero; opacity: 1;"  paint-order="stroke"  transform=" translate(-33.614999999999995, 31.5)" d="M 4.5 0 L 42.93 0 C 56.25 0 62.73 -6.12 62.73 -19.8 C 62.73 -28.62 59.85 -34.47 54.18 -37.35 C 56.88 -40.05 58.23 -43.65 58.23 -48.15 C 58.23 -57.24 52.29 -63 43.38 -63 L 4.5 -63 Z M 42.93 -12.6 L 19.8 -12.6 L 19.8 -27 L 42.93 -27 C 46.08 -27 47.43 -24.84 47.43 -19.8 C 47.43 -15.03 46.08 -12.6 42.93 -12.6 Z M 39.96 -39.6 L 19.8 -39.6 L 19.8 -50.4 L 39.96 -50.4 C 41.76 -50.4 42.93 -48.15 42.93 -45 C 42.93 -41.76 41.67 -39.6 39.96 -39.6 Z" stroke-linecap="round" />
</g>
</g>
</g>
</svg>